<svg width="32" height="32" viewBox="0 0 32 32" fill="none" xmlns="http://www.w3.org/2000/svg">
<path d="M2.62701 3.69401C2.66716 3.61741 2.722 3.54947 2.78842 3.49408C2.85484 3.4387 2.93153 3.39695 3.01409 3.37122C3.09666 3.34549 3.18349 3.3363 3.26961 3.34415C3.35573 3.35201 3.43947 3.37676 3.51601 3.41701L5.11501 4.25701C6.39401 4.92101 7.19801 6.25701 7.19801 7.70001V9.01001C7.19801 9.18452 7.12869 9.35188 7.00529 9.47528C6.88189 9.59868 6.71453 9.66801 6.54001 9.66801C6.3655 9.66801 6.19814 9.59868 6.07474 9.47528C5.95134 9.35188 5.88201 9.18452 5.88201 9.01001V7.70001C5.88215 7.23132 5.75411 6.77152 5.51175 6.37035C5.2694 5.96919 4.92195 5.64194 4.50701 5.42401L4.50401 5.42301L2.90401 4.58301C2.82728 4.54287 2.75923 4.48797 2.70376 4.42148C2.64829 4.35498 2.60649 4.27819 2.58075 4.19551C2.55502 4.11283 2.54586 4.02588 2.5538 3.93965C2.56173 3.85342 2.58662 3.7706 2.62701 3.69401ZM12.803 3.69401C12.8433 3.77055 12.868 3.85429 12.8759 3.94041C12.8837 4.02653 12.8745 4.11336 12.8488 4.19593C12.8231 4.27849 12.7813 4.35518 12.7259 4.4216C12.6706 4.48802 12.6026 4.54286 12.526 4.58301L10.923 5.42401C10.5081 5.64194 10.1606 5.96919 9.91828 6.37035C9.67592 6.77152 9.54788 7.23132 9.54801 7.70001V9.01001C9.54801 9.18452 9.47869 9.35188 9.35529 9.47528C9.23189 9.59868 9.06453 9.66801 8.89001 9.66801C8.7155 9.66801 8.54814 9.59868 8.42474 9.47528C8.30134 9.35188 8.23201 9.18452 8.23201 9.01001V7.70001C8.23201 6.25701 9.03601 4.92101 10.315 4.25601L11.915 3.41701C12.0695 3.33605 12.2498 3.31975 12.4164 3.37169C12.5829 3.42364 12.7219 3.53957 12.803 3.69401ZM12.23 20.9C12.5828 20.9 12.921 20.7599 13.1705 20.5105C13.4199 20.261 13.56 19.9227 13.56 19.57C13.56 19.2173 13.4199 18.879 13.1705 18.6296C12.921 18.3801 12.5828 18.24 12.23 18.24C11.8773 18.24 11.539 18.3801 11.2896 18.6296C11.0401 18.879 10.9 19.2173 10.9 19.57C10.9 19.9227 11.0401 20.261 11.2896 20.5105C11.539 20.7599 11.8773 20.9 12.23 20.9ZM14.89 23.56C14.89 23.9127 14.7499 24.251 14.5005 24.5005C14.251 24.7499 13.9128 24.89 13.56 24.89C13.2073 24.89 12.869 24.7499 12.6196 24.5005C12.3701 24.251 12.23 23.9127 12.23 23.56C12.23 23.2073 12.3701 22.869 12.6196 22.6196C12.869 22.3701 13.2073 22.23 13.56 22.23C13.9128 22.23 14.251 22.3701 14.5005 22.6196C14.7499 22.869 14.89 23.2073 14.89 23.56ZM16.22 28.16C16.5728 28.16 16.911 28.0199 17.1605 27.7705C17.4099 27.521 17.55 27.1827 17.55 26.83C17.55 26.4773 17.4099 26.139 17.1605 25.8896C16.911 25.6401 16.5728 25.5 16.22 25.5C15.8673 25.5 15.529 25.6401 15.2796 25.8896C15.0301 26.139 14.89 26.4773 14.89 26.83C14.89 27.1827 15.0301 27.521 15.2796 27.7705C15.529 28.0199 15.8673 28.16 16.22 28.16ZM21.98 28.02C21.98 28.3727 21.8399 28.711 21.5905 28.9605C21.341 29.2099 21.0028 29.35 20.65 29.35C20.2973 29.35 19.959 29.2099 19.7096 28.9605C19.4601 28.711 19.32 28.3727 19.32 28.02C19.32 27.6673 19.4601 27.329 19.7096 27.0796C19.959 26.8301 20.2973 26.69 20.65 26.69C21.0028 26.69 21.341 26.8301 21.5905 27.0796C21.8399 27.329 21.98 27.6673 21.98 28.02ZM26.58 28.02C26.58 28.3727 26.4399 28.711 26.1905 28.9605C25.941 29.2099 25.6028 29.35 25.25 29.35C24.8973 29.35 24.559 29.2099 24.3096 28.9605C24.0601 28.711 23.92 28.3727 23.92 28.02C23.92 27.6673 24.0601 27.329 24.3096 27.0796C24.559 26.8301 24.8973 26.69 25.25 26.69C25.6028 26.69 25.941 26.8301 26.1905 27.0796C26.4399 27.329 26.58 27.6673 26.58 28.02Z" fill="#008463"/>
<path d="M20.3599 28.02H26.2499C28.2799 28.02 29.9899 26.36 29.9499 24.32C29.9303 23.3698 29.5394 22.4652 28.8609 21.7997C28.1824 21.1343 27.2703 20.7611 26.3199 20.76H21.8799C20.9199 20.76 20.0799 20.12 19.8299 19.19L18.2399 13.41C17.8119 11.8499 16.8833 10.4736 15.5969 9.4926C14.3106 8.51158 12.7377 7.98015 11.1199 7.97998H6.46995C5.72596 7.98092 4.99926 8.20433 4.38323 8.62149C3.7672 9.03865 3.29 9.6305 3.01295 10.321L2.31995 11.68L3.01295 12.916C3.27721 13.5998 3.74211 14.1877 4.34659 14.6024C4.95107 15.0172 5.66686 15.2394 6.39995 15.24H9.59995C10.5599 15.24 11.3999 15.88 11.6499 16.81L13.2399 22.59C14.1199 25.8 17.0399 28.02 20.3599 28.02Z" fill="#00D26A"/>
<path d="M2.77 11.68C2.76 11.196 2.85 10.733 3.018 10.31C2.89548 10.2833 2.76853 10.2843 2.64647 10.3131C2.52441 10.3419 2.41035 10.3977 2.31269 10.4763C2.21503 10.555 2.13624 10.6546 2.08213 10.7677C2.02802 10.8808 1.99995 11.0046 2 11.13V12.11C2.00102 12.2352 2.02983 12.3586 2.08434 12.4712C2.13885 12.5839 2.21771 12.683 2.31522 12.7615C2.41272 12.8399 2.52644 12.8958 2.64815 12.9249C2.76986 12.9541 2.89653 12.9558 3.019 12.93C2.86277 12.5314 2.77846 12.1081 2.77 11.68ZM6.04 11.13C6.04 10.67 5.66 10.29 5.2 10.29C4.73 10.29 4.36 10.66 4.36 11.13V12.11C4.36 12.57 4.74 12.95 5.2 12.95C5.66 12.95 6.04 12.57 6.04 12.11V11.13Z" fill="#212121"/>
</svg>
